<mxfile host="app.diagrams.net" modified="2024-04-26T00:20:27.191Z" agent="Mozilla/5.0 (Windows NT 10.0; Win64; x64) AppleWebKit/537.36 (KHTML, like Gecko) Chrome/124.0.0.0 Safari/537.36" etag="fxpMIn8qq7TB3FgcF_pg" version="24.3.0" type="device">
  <diagram name="PÃ¡gina-1" id="1u86o8Az8M9OgEiZYZo-">
    <mxGraphModel dx="1434" dy="764" grid="1" gridSize="10" guides="1" tooltips="1" connect="1" arrows="1" fold="1" page="1" pageScale="1" pageWidth="827" pageHeight="1169" math="0" shadow="0">
      <root>
        <mxCell id="0" />
        <mxCell id="1" parent="0" />
        <mxCell id="iBZh0iIKspApe6-WfNtZ-1" value="Comensal" style="swimlane;fontStyle=1;align=center;verticalAlign=top;childLayout=stackLayout;horizontal=1;startSize=26;horizontalStack=0;resizeParent=1;resizeParentMax=0;resizeLast=0;collapsible=1;marginBottom=0;whiteSpace=wrap;html=1;" vertex="1" parent="1">
          <mxGeometry x="10" y="10" width="160" height="128" as="geometry">
            <mxRectangle x="10" y="10" width="90" height="30" as="alternateBounds" />
          </mxGeometry>
        </mxCell>
        <mxCell id="iBZh0iIKspApe6-WfNtZ-2" value="-saciedad : int&lt;div&gt;-tieneHambre : bool&lt;/div&gt;&lt;div&gt;-nombre : string (Pablo)&lt;/div&gt;" style="text;strokeColor=none;fillColor=none;align=left;verticalAlign=top;spacingLeft=4;spacingRight=4;overflow=hidden;rotatable=0;points=[[0,0.5],[1,0.5]];portConstraint=eastwest;whiteSpace=wrap;html=1;" vertex="1" parent="iBZh0iIKspApe6-WfNtZ-1">
          <mxGeometry y="26" width="160" height="64" as="geometry" />
        </mxCell>
        <mxCell id="iBZh0iIKspApe6-WfNtZ-3" value="" style="line;strokeWidth=1;fillColor=none;align=left;verticalAlign=middle;spacingTop=-1;spacingLeft=3;spacingRight=3;rotatable=0;labelPosition=right;points=[];portConstraint=eastwest;strokeColor=inherit;" vertex="1" parent="iBZh0iIKspApe6-WfNtZ-1">
          <mxGeometry y="90" width="160" height="8" as="geometry" />
        </mxCell>
        <mxCell id="iBZh0iIKspApe6-WfNtZ-4" value="+ method(type): apetito" style="text;strokeColor=none;fillColor=none;align=left;verticalAlign=top;spacingLeft=4;spacingRight=4;overflow=hidden;rotatable=0;points=[[0,0.5],[1,0.5]];portConstraint=eastwest;whiteSpace=wrap;html=1;" vertex="1" parent="iBZh0iIKspApe6-WfNtZ-1">
          <mxGeometry y="98" width="160" height="30" as="geometry" />
        </mxCell>
        <mxCell id="iBZh0iIKspApe6-WfNtZ-42" style="edgeStyle=orthogonalEdgeStyle;rounded=0;orthogonalLoop=1;jettySize=auto;html=1;entryX=0.5;entryY=0;entryDx=0;entryDy=0;" edge="1" parent="1" source="iBZh0iIKspApe6-WfNtZ-9" target="iBZh0iIKspApe6-WfNtZ-41">
          <mxGeometry relative="1" as="geometry" />
        </mxCell>
        <mxCell id="iBZh0iIKspApe6-WfNtZ-9" value="Inicio(Apetito)" style="ellipse;whiteSpace=wrap;html=1;" vertex="1" parent="1">
          <mxGeometry x="400" y="10" width="120" height="80" as="geometry" />
        </mxCell>
        <mxCell id="iBZh0iIKspApe6-WfNtZ-35" style="edgeStyle=orthogonalEdgeStyle;rounded=0;orthogonalLoop=1;jettySize=auto;html=1;entryX=0.5;entryY=0;entryDx=0;entryDy=0;" edge="1" parent="1" source="iBZh0iIKspApe6-WfNtZ-10" target="iBZh0iIKspApe6-WfNtZ-13">
          <mxGeometry relative="1" as="geometry">
            <Array as="points">
              <mxPoint x="460" y="300" />
              <mxPoint x="460" y="300" />
            </Array>
          </mxGeometry>
        </mxCell>
        <mxCell id="iBZh0iIKspApe6-WfNtZ-10" value="Comida" style="shape=parallelogram;perimeter=parallelogramPerimeter;whiteSpace=wrap;html=1;fixedSize=1;" vertex="1" parent="1">
          <mxGeometry x="405" y="230" width="120" height="60" as="geometry" />
        </mxCell>
        <mxCell id="iBZh0iIKspApe6-WfNtZ-11" value="Fin" style="ellipse;whiteSpace=wrap;html=1;" vertex="1" parent="1">
          <mxGeometry x="400" y="650" width="120" height="80" as="geometry" />
        </mxCell>
        <mxCell id="iBZh0iIKspApe6-WfNtZ-37" style="edgeStyle=orthogonalEdgeStyle;rounded=0;orthogonalLoop=1;jettySize=auto;html=1;" edge="1" parent="1" source="iBZh0iIKspApe6-WfNtZ-12">
          <mxGeometry relative="1" as="geometry">
            <mxPoint x="620" y="390" as="targetPoint" />
          </mxGeometry>
        </mxCell>
        <mxCell id="iBZh0iIKspApe6-WfNtZ-38" value="False" style="edgeLabel;html=1;align=center;verticalAlign=middle;resizable=0;points=[];" vertex="1" connectable="0" parent="iBZh0iIKspApe6-WfNtZ-37">
          <mxGeometry x="-0.3649" y="3" relative="1" as="geometry">
            <mxPoint as="offset" />
          </mxGeometry>
        </mxCell>
        <mxCell id="iBZh0iIKspApe6-WfNtZ-39" style="edgeStyle=orthogonalEdgeStyle;rounded=0;orthogonalLoop=1;jettySize=auto;html=1;entryX=0.5;entryY=0;entryDx=0;entryDy=0;" edge="1" parent="1" source="iBZh0iIKspApe6-WfNtZ-12" target="iBZh0iIKspApe6-WfNtZ-11">
          <mxGeometry relative="1" as="geometry" />
        </mxCell>
        <mxCell id="iBZh0iIKspApe6-WfNtZ-40" value="True" style="edgeLabel;html=1;align=center;verticalAlign=middle;resizable=0;points=[];" vertex="1" connectable="0" parent="iBZh0iIKspApe6-WfNtZ-39">
          <mxGeometry x="-0.1541" relative="1" as="geometry">
            <mxPoint as="offset" />
          </mxGeometry>
        </mxCell>
        <mxCell id="iBZh0iIKspApe6-WfNtZ-12" value="Saciedad" style="shape=document;whiteSpace=wrap;html=1;boundedLbl=1;" vertex="1" parent="1">
          <mxGeometry x="285" y="480" width="120" height="80" as="geometry" />
        </mxCell>
        <mxCell id="iBZh0iIKspApe6-WfNtZ-23" style="edgeStyle=orthogonalEdgeStyle;rounded=0;orthogonalLoop=1;jettySize=auto;html=1;entryX=0.5;entryY=0;entryDx=0;entryDy=0;" edge="1" parent="1" source="iBZh0iIKspApe6-WfNtZ-13" target="iBZh0iIKspApe6-WfNtZ-12">
          <mxGeometry relative="1" as="geometry">
            <mxPoint x="340" y="470" as="targetPoint" />
            <Array as="points">
              <mxPoint x="345" y="385" />
            </Array>
          </mxGeometry>
        </mxCell>
        <mxCell id="iBZh0iIKspApe6-WfNtZ-24" value="True" style="edgeLabel;html=1;align=center;verticalAlign=middle;resizable=0;points=[];" vertex="1" connectable="0" parent="iBZh0iIKspApe6-WfNtZ-23">
          <mxGeometry x="-0.6022" y="4" relative="1" as="geometry">
            <mxPoint as="offset" />
          </mxGeometry>
        </mxCell>
        <mxCell id="iBZh0iIKspApe6-WfNtZ-27" style="edgeStyle=orthogonalEdgeStyle;rounded=0;orthogonalLoop=1;jettySize=auto;html=1;entryX=0.5;entryY=1;entryDx=0;entryDy=0;" edge="1" parent="1" source="iBZh0iIKspApe6-WfNtZ-13" target="iBZh0iIKspApe6-WfNtZ-26">
          <mxGeometry relative="1" as="geometry" />
        </mxCell>
        <mxCell id="iBZh0iIKspApe6-WfNtZ-34" value="False" style="edgeLabel;html=1;align=center;verticalAlign=middle;resizable=0;points=[];" vertex="1" connectable="0" parent="iBZh0iIKspApe6-WfNtZ-27">
          <mxGeometry x="-0.0655" y="-3" relative="1" as="geometry">
            <mxPoint as="offset" />
          </mxGeometry>
        </mxCell>
        <mxCell id="iBZh0iIKspApe6-WfNtZ-13" value="Hay Comida?" style="rhombus;whiteSpace=wrap;html=1;" vertex="1" parent="1">
          <mxGeometry x="405" y="350" width="110" height="70" as="geometry" />
        </mxCell>
        <mxCell id="iBZh0iIKspApe6-WfNtZ-36" style="edgeStyle=orthogonalEdgeStyle;rounded=0;orthogonalLoop=1;jettySize=auto;html=1;" edge="1" parent="1" source="iBZh0iIKspApe6-WfNtZ-26" target="iBZh0iIKspApe6-WfNtZ-10">
          <mxGeometry relative="1" as="geometry">
            <Array as="points">
              <mxPoint x="620" y="260" />
            </Array>
          </mxGeometry>
        </mxCell>
        <mxCell id="iBZh0iIKspApe6-WfNtZ-26" value="Busca Comida" style="rounded=0;whiteSpace=wrap;html=1;" vertex="1" parent="1">
          <mxGeometry x="560" y="290" width="120" height="60" as="geometry" />
        </mxCell>
        <mxCell id="iBZh0iIKspApe6-WfNtZ-41" value="Alimentarse" style="rounded=0;whiteSpace=wrap;html=1;" vertex="1" parent="1">
          <mxGeometry x="400" y="120" width="120" height="60" as="geometry" />
        </mxCell>
        <mxCell id="iBZh0iIKspApe6-WfNtZ-43" style="edgeStyle=orthogonalEdgeStyle;rounded=0;orthogonalLoop=1;jettySize=auto;html=1;entryX=0.458;entryY=0;entryDx=0;entryDy=0;entryPerimeter=0;" edge="1" parent="1" source="iBZh0iIKspApe6-WfNtZ-41" target="iBZh0iIKspApe6-WfNtZ-10">
          <mxGeometry relative="1" as="geometry" />
        </mxCell>
      </root>
    </mxGraphModel>
  </diagram>
</mxfile>
